<?xml version="1.0" standalone="no"?>
<!DOCTYPE svg PUBLIC "-//W3C//DTD SVG 20010904//EN"
 "http://www.w3.org/TR/2001/REC-SVG-20010904/DTD/svg10.dtd">
<svg version="1.0" xmlns="http://www.w3.org/2000/svg"
 width="260.000000pt" height="260.000000pt" viewBox="0 0 260.000000 260.000000"
 preserveAspectRatio="xMidYMid meet">
<metadata>
Created by potrace 1.11, written by Peter Selinger 2001-2013
</metadata>
<g transform="translate(0.000000,260.000000) scale(0.100000,-0.100000)"
fill="#000000" stroke="none">
<path d="M0 1300 l0 -1300 1300 0 1300 0 0 1300 0 1300 -1300 0 -1300 0 0
-1300z m1512 972 c114 -38 197 -121 235 -235 22 -67 30 -383 13 -471 -21 -107
-84 -202 -160 -241 -29 -15 -33 -35 -7 -35 24 0 88 -54 116 -99 57 -88 63
-132 71 -511 4 -227 11 -355 18 -373 7 -16 12 -30 12 -33 0 -2 -74 -4 -164 -4
l-163 0 -12 57 c-6 34 -11 168 -11 337 0 315 -8 377 -56 427 -35 37 -79 49
-176 49 l-78 0 0 -435 0 -435 -160 0 -160 0 0 1016 0 1016 308 -4 c284 -4 312
-6 374 -26z"/>
<path d="M1150 1721 l0 -291 79 0 c89 0 135 12 172 47 42 39 54 100 53 264 -1
122 -4 152 -20 184 -33 67 -61 80 -180 83 l-104 4 0 -291z"/>
</g>
</svg>
